<svg width="24" height="24" viewBox="0 0 24 24" fill="none" xmlns="http://www.w3.org/2000/svg">
<path d="M22.4745 11.5266L12.4745 1.52658C12.3496 1.40241 12.1806 1.33271 12.0045 1.33271C11.8284 1.33271 11.6594 1.40241 11.5345 1.52658L1.53452 11.5266C1.42531 11.6541 1.36824 11.8182 1.37472 11.9859C1.3812 12.1537 1.45075 12.3129 1.56948 12.4316C1.68821 12.5504 1.84737 12.6199 2.01515 12.6264C2.18294 12.6329 2.34699 12.5758 2.47452 12.4666L12.0012 2.93991L21.5279 12.4732C21.6554 12.5825 21.8194 12.6395 21.9872 12.6331C22.155 12.6266 22.3142 12.557 22.4329 12.4383C22.5516 12.3196 22.6212 12.1604 22.6277 11.9926C22.6341 11.8248 22.5771 11.6608 22.4679 11.5332L22.4745 11.5266Z" fill="#1F1F1F"/>
<path d="M18.6679 21.3332H15.3345V14.6666H8.66786V21.3332H5.33452V11.9999L4.00119 13.3332V21.3332C4.00119 21.6869 4.14167 22.026 4.39172 22.276C4.64176 22.5261 4.9809 22.6666 5.33452 22.6666H10.0012V15.9999H14.0012V22.6666H18.6679C19.0215 22.6666 19.3606 22.5261 19.6107 22.276C19.8607 22.026 20.0012 21.6869 20.0012 21.3332V13.1732L18.6679 11.8399V21.3332Z" fill="#1F1F1F"/>
<path fill-rule="evenodd" clip-rule="evenodd" d="M22.4679 11.5332C22.5771 11.6608 22.6341 11.8248 22.6277 11.9926C22.6212 12.1604 22.5516 12.3196 22.4329 12.4383C22.3142 12.557 22.155 12.6266 21.9872 12.6331C21.8194 12.6395 21.6554 12.5825 21.5279 12.4732L12.0012 2.93991L2.47452 12.4666C2.34699 12.5758 2.18294 12.6329 2.01515 12.6264C1.84737 12.6199 1.68821 12.5504 1.56948 12.4316C1.45075 12.3129 1.3812 12.1537 1.37472 11.9859C1.36824 11.8182 1.42531 11.6541 1.53452 11.5266L11.5345 1.52658C11.6594 1.40241 11.8284 1.33271 12.0045 1.33271C12.1806 1.33271 12.3496 1.40241 12.4745 1.52658L22.4745 11.5266L22.4679 11.5332ZM22.8468 11.5786L12.6867 1.31444C12.5055 1.1344 12.2599 1.03271 12.0045 1.03271C11.7491 1.03271 11.5041 1.13377 11.323 1.31381L1.3142 11.3226L1.30666 11.3314C1.1483 11.5164 1.06554 11.7542 1.07494 11.9975C1.08434 12.2408 1.18519 12.4716 1.35735 12.6438C1.52951 12.8159 1.76029 12.9168 2.00358 12.9262C2.24686 12.9356 2.48473 12.8528 2.66966 12.6944L2.67846 12.6869L12.0011 3.36425L21.3239 12.6935L21.3327 12.7011C21.5176 12.8595 21.7555 12.9422 21.9988 12.9328C22.2421 12.9234 22.4729 12.8226 22.645 12.6504C22.8172 12.4783 22.918 12.2475 22.9274 12.0042C22.9331 11.8568 22.905 11.7114 22.8468 11.5786ZM5.33452 21.3332H8.66786V14.6666H15.3345V21.3332H18.6679V11.8399L20.0012 13.1732V21.3332C20.0012 21.6869 19.8607 22.026 19.6107 22.276C19.3606 22.5261 19.0215 22.6666 18.6679 22.6666H14.0012V15.9999H10.0012V22.6666H5.33452C4.9809 22.6666 4.64176 22.5261 4.39172 22.276C4.14167 22.026 4.00119 21.6869 4.00119 21.3332V13.3332L5.33452 11.9999V21.3332ZM10.3012 16.2999V22.9666H5.33452C4.90134 22.9666 4.48589 22.7945 4.17958 22.4882C3.87327 22.1819 3.70119 21.7664 3.70119 21.3332V13.209L5.63452 11.2756V21.0332H8.36786V14.3666H15.6345V21.0332H18.3679V11.1156L20.3012 13.049V21.3332C20.3012 21.7664 20.1291 22.1819 19.8228 22.4882C19.5165 22.7945 19.101 22.9666 18.6679 22.9666H13.7012V16.2999H10.3012Z" fill="#1F1F1F"/>
</svg>
