<svg width="40" height="40" viewBox="0 0 40 40" fill="none" xmlns="http://www.w3.org/2000/svg">
<path d="M33.9417 21.1781C34.2542 20.8655 34.4297 20.4417 34.4297 19.9998C34.4297 19.5578 34.2542 19.134 33.9417 18.8214L24.5134 9.39309C24.3596 9.23391 24.1757 9.10694 23.9724 9.01959C23.769 8.93224 23.5503 8.88626 23.329 8.88434C23.1077 8.88242 22.8883 8.92459 22.6835 9.00839C22.4786 9.09219 22.2925 9.21595 22.1361 9.37243C21.9796 9.52892 21.8558 9.71501 21.772 9.91983C21.6882 10.1247 21.646 10.3441 21.648 10.5654C21.6499 10.7867 21.6959 11.0054 21.7832 11.2088C21.8706 11.4121 21.9975 11.596 22.1567 11.7498L28.74 18.3331H6.66838C6.22635 18.3331 5.80242 18.5087 5.48986 18.8212C5.1773 19.1338 5.00171 19.5577 5.00171 19.9998C5.00171 20.4418 5.1773 20.8657 5.48986 21.1783C5.80242 21.4908 6.22635 21.6664 6.66838 21.6664H28.74L22.1567 28.2498C21.8531 28.5641 21.6851 28.9851 21.6889 29.4221C21.6927 29.8591 21.868 30.2771 22.177 30.5861C22.486 30.8951 22.904 31.0704 23.341 31.0742C23.778 31.078 24.199 30.91 24.5134 30.6064L33.9417 21.1781Z" fill="#4F4F4F"/>
</svg>
