<svg width="24" height="24" viewBox="0 0 24 24" fill="none" xmlns="http://www.w3.org/2000/svg">
<g clip-path="url(#clip0_290_2219)">
<path d="M20.3635 12.7071C20.5509 12.5196 20.6562 12.2653 20.6562 12.0001C20.6562 11.7349 20.5509 11.4806 20.3635 11.2931L14.7065 5.6361C14.6142 5.54059 14.5039 5.46441 14.3819 5.412C14.2599 5.35959 14.1286 5.332 13.9959 5.33085C13.8631 5.32969 13.7314 5.355 13.6085 5.40528C13.4856 5.45556 13.374 5.52981 13.2801 5.6237C13.1862 5.7176 13.1119 5.82925 13.0616 5.95214C13.0114 6.07504 12.9861 6.20672 12.9872 6.3395C12.9884 6.47228 13.016 6.6035 13.0684 6.7255C13.1208 6.84751 13.197 6.95785 13.2925 7.0501L17.2425 11.0001H3.99946C3.73425 11.0001 3.47989 11.1055 3.29236 11.293C3.10482 11.4805 2.99946 11.7349 2.99946 12.0001C2.99946 12.2653 3.10482 12.5197 3.29236 12.7072C3.47989 12.8947 3.73425 13.0001 3.99946 13.0001H17.2425L13.2925 16.9501C13.1103 17.1387 13.0095 17.3913 13.0118 17.6535C13.0141 17.9157 13.1192 18.1665 13.3046 18.3519C13.4901 18.5373 13.7409 18.6425 14.0031 18.6448C14.2653 18.6471 14.5179 18.5463 14.7065 18.3641L20.3635 12.7071Z" fill="#1F1F1F"/>
</g>
<defs>
<clipPath id="clip0_290_2219">
<rect width="24" height="24" fill="white" transform="matrix(0 1 -1 0 24 0)"/>
</clipPath>
</defs>
</svg>
