<svg width="24" height="24" viewBox="0 0 24 24" fill="none" xmlns="http://www.w3.org/2000/svg">
<path fill-rule="evenodd" clip-rule="evenodd" d="M16.7012 2.20179C16.9044 2.286 17.0891 2.40944 17.2447 2.56505L21.4334 6.75476C21.7474 7.06886 21.9238 7.49482 21.9238 7.93897C21.9238 8.38312 21.7474 8.80909 21.4334 9.1232L9.87268 20.6849C9.7177 20.8408 9.53331 20.9644 9.33021 21.0486C9.1271 21.1328 8.90877 21.1758 8.68891 21.1752H4.49923C4.05499 21.1752 3.62895 20.9988 3.31482 20.6846C3.0007 20.3705 2.82423 19.9445 2.82423 19.5002L2.82423 15.31C2.82358 15.0901 2.8666 14.8723 2.95077 14.6692C3.03494 14.4661 3.15906 14.2813 3.31503 14.1263L14.8754 2.56505C15.0309 2.40944 15.2156 2.286 15.4189 2.20179C15.6221 2.11757 15.84 2.07422 16.06 2.07422C16.28 2.07422 16.4979 2.11757 16.7012 2.20179ZM4.67423 19.3252H8.61332L16.6883 11.2502L12.7492 7.31113L4.67423 15.3861V19.3252ZM14.0601 6.00022L17.9992 9.93932L20.0014 7.9371L16.0624 3.99801L14.0601 6.00022Z" fill="#90A7FF"/>
</svg>
