<svg width="28" height="28" viewBox="0 0 28 28" fill="none" xmlns="http://www.w3.org/2000/svg">
<g clip-path="url(#clip0_102_670)">
<path d="M26.3663 1.358C25.413 0.444503 24.3614 -0.0183716 23.2388 -0.0183716C21.4835 -0.0183716 20.203 1.11563 19.8525 1.463C19.3595 1.95125 2.53977 18.7771 2.53977 18.7771C2.42954 18.8878 2.34995 19.0253 2.30879 19.1761C1.92948 20.5778 0.0294195 26.7973 0.0105523 26.8599C-0.0869828 27.1784 5.23441e-05 27.5253 0.23499 27.7603C0.400718 27.9255 0.625218 28.0184 0.859275 28.0184C0.949838 28.0184 1.04125 28.0048 1.1305 27.9755C1.19481 27.9545 7.61469 25.8794 8.67122 25.564C8.81062 25.522 8.93767 25.4466 9.04135 25.3444C9.70897 24.6846 25.3964 9.17175 26.4377 8.09638C27.5148 6.98644 28.0498 5.83057 28.0293 4.66157C28.0078 3.50744 27.4483 2.39619 26.3663 1.358ZM19.5739 4.26125C20.0197 4.36932 21.071 4.72232 22.1446 5.8056C23.2296 6.90023 23.5232 8.15148 23.5779 8.43629C20.1374 11.8589 12.2178 19.6945 9.09576 22.7828C8.80745 22.1112 8.34151 21.3023 7.59204 20.5472C6.67682 19.6249 5.74536 19.1039 5.02698 18.8108C8.11661 15.7207 16.1854 7.64838 19.5739 4.26125ZM3.83876 20.2877C4.31957 20.4154 5.31836 20.786 6.33645 21.8124C7.12045 22.6029 7.49057 23.4749 7.65682 24.0064C6.44057 24.3976 3.77751 25.3168 2.08526 25.8623C2.58663 24.2125 3.43361 21.6431 3.83876 20.2877ZM25.1677 6.84595C25.1126 6.90223 25.0573 6.95838 25.0019 7.01439C24.7254 6.30211 24.2402 5.38689 23.4002 4.53989C22.5418 3.67451 21.6712 3.16395 20.9734 2.86207C21.0329 2.80301 21.0788 2.75661 21.0968 2.73914C21.197 2.64023 22.1057 1.77182 23.2383 1.77182C23.8902 1.77182 24.5303 2.06932 25.1419 2.65557C25.8668 3.35076 26.2405 4.03676 26.2527 4.6952C26.2645 5.3672 25.8996 6.09082 25.1677 6.84595Z" fill="#90A7FF"/>
</g>
<defs>
<clipPath id="clip0_102_670">
<rect width="28" height="28" fill="white"/>
</clipPath>
</defs>
</svg>
