<svg width="28" height="28" viewBox="0 0 28 28" fill="none" xmlns="http://www.w3.org/2000/svg">
<path fill-rule="evenodd" clip-rule="evenodd" d="M19.0084 2.67502C19.464 2.21941 20.2027 2.21941 20.6583 2.67502L25.325 7.3417C25.5438 7.56049 25.6667 7.85723 25.6667 8.16665C25.6667 8.47607 25.5438 8.77282 25.325 8.99161L20.6583 13.6583C20.2027 14.1139 19.464 14.1139 19.0084 13.6583C18.5528 13.2027 18.5528 12.464 19.0084 12.0084L21.6835 9.33332L3.50004 9.33332C2.85571 9.33332 2.33337 8.81098 2.33337 8.16665C2.33337 7.52232 2.85571 6.99999 3.50004 6.99999L21.6835 6.99999L19.0084 4.32494C18.5528 3.86933 18.5528 3.13063 19.0084 2.67502ZM8.99168 14.3417C9.44729 14.7973 9.44729 15.536 8.99168 15.9916L6.31664 18.6666L24.5001 18.6666C25.1444 18.6666 25.6667 19.189 25.6667 19.8333C25.6667 20.4776 25.1444 21 24.5001 21L6.31664 21L8.99168 23.675C9.44729 24.1306 9.44729 24.8693 8.99168 25.3249C8.53607 25.7805 7.79738 25.7805 7.34177 25.3249L2.6751 20.6583C2.21949 20.2027 2.21949 19.464 2.6751 19.0084L7.34176 14.3417C7.79738 13.8861 8.53607 13.8861 8.99168 14.3417Z" fill="#90A7FF"/>
</svg>
