<svg width="24" height="24" viewBox="0 0 24 24" fill="none" xmlns="http://www.w3.org/2000/svg">
<g clip-path="url(#clip0_691_3006)">
<path d="M6.92801 11.8999C6.32748 11.323 5.84565 10.6335 5.51034 9.87023C5.15516 9.06175 4.97214 8.1882 4.97292 7.30515M6.92801 11.8999L17.8549 7.3052C17.8549 3.76682 14.9705 0.9 11.4134 0.9C7.85626 0.9 4.97297 3.76682 4.97292 7.30515M6.92801 11.8999C4.96802 12.8398 3.46033 14.1445 2.4271 15.815L6.92801 11.8999ZM4.97292 7.30515L5.07292 7.30524H4.97292C4.97292 7.30521 4.97292 7.30518 4.97292 7.30515ZM19.5542 14.8624L19.5545 14.8624C20.0282 14.8624 20.4113 15.2486 20.4113 15.7225V17.5497H22.2382H22.2385V17.6497C22.3383 17.6494 22.4371 17.6688 22.5294 17.7067C22.6217 17.7447 22.7056 17.8004 22.7763 17.8708C22.847 17.9412 22.9031 18.0249 22.9414 18.117L19.5542 14.8624ZM19.5542 14.8624C19.3266 14.863 19.1086 14.954 18.948 15.1153C18.7874 15.2766 18.6974 15.495 18.6977 15.7226L19.5542 14.8624ZM18.6977 19.2633H16.8708H16.8705V19.1633L18.6977 19.2633ZM18.6977 19.2633V21.0915V21.0916V19.2633ZM20.4113 19.2633V21.0915V21.0916V19.2633ZM20.4113 19.2633H22.2382H22.2385H20.4113ZM17.2636 9.98941C17.6535 9.1483 17.8553 8.2323 17.8549 7.30524L17.9837 13.7293C17.4161 13.2574 16.8705 12.8614 16.3447 12.5424L16.3966 12.4569C16.3966 12.4569 16.3966 12.4569 16.3966 12.4569C16.1869 12.3294 15.9584 12.2029 15.7112 12.0768C16.3662 11.4955 16.8949 10.785 17.2636 9.98941ZM14.0071 13.1693C14.5209 13.3856 15.0197 13.6362 15.4999 13.9194L2.42706 15.8151C1.2259 17.7541 0.733169 19.933 0.949509 22.3205L0.949534 22.3208C0.970682 22.5474 1.08088 22.7563 1.25594 22.9018C1.43092 23.0471 1.65639 23.1171 1.88291 23.0964C1.99516 23.0868 2.10443 23.0552 2.20446 23.0034C2.3046 22.9515 2.39352 22.8804 2.46615 22.7942C2.53877 22.7079 2.59368 22.6081 2.62772 22.5006C2.66176 22.3931 2.67427 22.2799 2.66454 22.1676L2.6645 22.1672C2.48043 20.1402 2.89088 18.3317 3.89294 16.7134C4.89036 15.1028 6.43663 13.8855 8.56529 13.0602L8.56539 13.0605L8.57214 13.0573L8.57457 13.0561C9.45827 13.488 10.4293 13.7119 11.4134 13.7105C12.3063 13.7119 13.1896 13.5276 14.0071 13.1693ZM6.69423 7.30524C6.69423 4.71442 8.80711 2.61361 11.4145 2.61361C14.0207 2.61361 16.1325 4.71437 16.1325 7.30524C16.1325 9.8972 14.0207 11.998 11.4134 11.998C8.80715 11.998 6.69423 9.8961 6.69423 7.30524Z" fill="#90A7FF" stroke="#90A7FF" stroke-width="0.2"/>
</g>
<defs>
<clipPath id="clip0_691_3006">
<rect width="24" height="24" fill="white"/>
</clipPath>
</defs>
</svg>
