<svg width="25" height="24" viewBox="0 0 25 24" fill="none" xmlns="http://www.w3.org/2000/svg">
<path d="M20.8635 12.7071C21.0509 12.5196 21.1562 12.2653 21.1562 12.0001C21.1562 11.7349 21.0509 11.4806 20.8635 11.2931L15.2065 5.6361C15.1142 5.54059 15.0039 5.46441 14.8819 5.412C14.7599 5.35959 14.6286 5.332 14.4959 5.33085C14.3631 5.32969 14.2314 5.355 14.1085 5.40528C13.9856 5.45556 13.874 5.52981 13.7801 5.6237C13.6862 5.7176 13.6119 5.82925 13.5616 5.95214C13.5114 6.07504 13.4861 6.20672 13.4872 6.3395C13.4884 6.47228 13.516 6.6035 13.5684 6.7255C13.6208 6.84751 13.697 6.95785 13.7925 7.0501L17.7425 11.0001H4.49946C4.23425 11.0001 3.97989 11.1055 3.79236 11.293C3.60482 11.4805 3.49946 11.7349 3.49946 12.0001C3.49946 12.2653 3.60482 12.5197 3.79236 12.7072C3.97989 12.8947 4.23425 13.0001 4.49946 13.0001H17.7425L13.7925 16.9501C13.6103 17.1387 13.5095 17.3913 13.5118 17.6535C13.5141 17.9157 13.6192 18.1665 13.8046 18.3519C13.9901 18.5373 14.2409 18.6425 14.5031 18.6448C14.7653 18.6471 15.0179 18.5463 15.2065 18.3641L20.8635 12.7071Z" fill="#FAFBFF"/>
</svg>
