<svg width="128" height="36" viewBox="0 0 128 36" fill="none" xmlns="http://www.w3.org/2000/svg">
<rect x="3.87891" width="30" height="31.9582" rx="4" fill="#1D14BF"/>
<rect y="4.04175" width="30" height="31.9582" rx="4" fill="url(#paint0_radial_690_2461)"/>
<path d="M11 14.0417V20.9569C11 21.2241 11.3231 21.358 11.5121 21.169L18.4879 14.1933C18.6769 14.0043 19 14.1381 19 14.4054V25.8811C19 26.0468 18.8657 26.1811 18.7 26.1811H15" stroke="#FAFBFF" stroke-width="2" stroke-linecap="round"/>
<path d="M45.12 2.8H52.928V4.384H46.976V7.584H52.464V9.152H46.976V12.416H52.928V14H45.12V2.8ZM55.8444 12.416V7.568H54.4044V6.032H55.8764V3.44H57.6524V6.032H60.1004V7.568H57.6524V11.84L58.2764 12.464H60.1004V14H57.4284L55.8444 12.416ZM61.9844 12.576V10.688L63.4084 9.28H67.5204V8.096L66.9284 7.504H64.4164L63.8244 8.096V8.608H62.0484V7.68L63.6804 6.032H67.6644L69.2964 7.68V14H67.6484V12.768L66.3684 14H63.4084L61.9844 12.576ZM66.1924 12.576L67.5204 11.296V10.624H64.2724L63.7604 11.12V12.096L64.2404 12.576H66.1924ZM71.8225 12.192V4.608L73.6305 2.8H78.8785L80.6545 4.576V6.048H78.7985V5.232L77.9505 4.4H74.5905L73.6785 5.296V11.504L74.5905 12.4H77.9505L78.7985 11.568V10.752H80.6545V12.224L78.8785 14H73.6305L71.8225 12.192ZM82.6219 12.576V10.688L84.0459 9.28H88.1579V8.096L87.5659 7.504H85.0539L84.4619 8.096V8.608H82.6859V7.68L84.3179 6.032H88.3019L89.9339 7.68V14H88.2859V12.768L87.0059 14H84.0459L82.6219 12.576ZM86.8299 12.576L88.1579 11.296V10.624H84.9099L84.3979 11.12V12.096L84.8779 12.576H86.8299ZM92.54 6.032H94.22V7.392L95.548 6.032H97.756V7.584H95.948L94.348 9.216V14H92.54V6.032ZM44.88 30.352V28.944H46.704V29.792L47.312 30.4H50.8L51.44 29.76V27.696L50.816 27.072H46.56L44.912 25.44V22.448L46.56 20.8H51.488L53.136 22.448V23.872H51.312V23.008L50.688 22.4H47.36L46.736 23.008V24.864L47.36 25.472H51.616L53.264 27.12V30.32L51.584 32H46.528L44.88 30.352ZM62.9825 24.032V33.888L61.3345 35.52H57.2705L55.8625 34.128V33.072H57.6705V33.6L58.0545 34H60.5505L61.1745 33.36V30.64L59.8305 32H57.2545L55.6225 30.352V24.032H57.4305V29.824L58.0545 30.448H59.5105L61.1745 28.72V24.032H62.9825ZM65.2619 30.512V29.536H67.0379V30.048L67.4859 30.512H70.2059L70.6539 30.048V29.184L70.1899 28.72H66.7499L65.3259 27.28V25.488L66.7819 24.032H70.7979L72.2699 25.52V26.496H70.4939V25.984L70.0459 25.52H67.5499L67.1019 25.984V26.784L67.5659 27.248H70.9899L72.4299 28.704V30.544L70.9739 32H66.7339L65.2619 30.512ZM75.435 30.416V25.568H73.995V24.032H75.467V21.44H77.243V24.032H79.691V25.568H77.243V29.84L77.867 30.464H79.691V32H77.019L75.435 30.416ZM81.4206 30.416V25.632L83.0046 24.032H87.3406L88.9566 25.632V28.608H83.2286V29.888L83.8366 30.496H86.5726L87.1486 29.904V29.424H88.9406V30.448L87.3886 32H82.9886L81.4206 30.416ZM87.1486 27.28V26.176L86.5246 25.536H83.8526L83.2286 26.176V27.28H87.1486ZM91.3994 24.032H93.0794V25.424L94.4554 24.032H96.4394L97.5754 25.184L98.7274 24.032H101.415L103.047 25.68V32H101.239V26.208L100.615 25.584H99.1274L98.1994 26.512V32H96.4394V26.192L95.8314 25.584H94.7434L93.2074 27.136V32H91.3994V24.032ZM105.24 30.512V29.536H107.016V30.048L107.464 30.512H110.184L110.632 30.048V29.184L110.168 28.72H106.728L105.304 27.28V25.488L106.76 24.032H110.776L112.248 25.52V26.496H110.472V25.984L110.024 25.52H107.528L107.08 25.984V26.784L107.544 27.248H110.968L112.408 28.704V30.544L110.952 32H106.712L105.24 30.512Z" fill="#1D14BF"/>
<defs>
<radialGradient id="paint0_radial_690_2461" cx="0" cy="0" r="1" gradientUnits="userSpaceOnUse" gradientTransform="translate(29.4424 2.71015) rotate(135.812) scale(38.8201 47.9125)">
<stop stop-color="#B9CDFF"/>
<stop offset="1" stop-color="#1D14BF"/>
</radialGradient>
</defs>
</svg>
