<svg width="28" height="28" viewBox="0 0 28 28" fill="none" xmlns="http://www.w3.org/2000/svg">
<path fill-rule="evenodd" clip-rule="evenodd" d="M28 25.6674V27.9909H14V28H0V25.6765C0 24.6196 0.31901 23.6811 0.957031 22.861C1.57682 22.041 2.36979 21.4852 3.33594 21.1936C3.55469 21.1025 3.8099 21.0114 4.10156 20.9203C4.375 20.8292 4.70312 20.7289 5.08594 20.6196C5.17708 20.6014 5.28646 20.574 5.41406 20.5376C5.54167 20.5011 5.71484 20.4465 5.93359 20.3736C6.09766 20.3371 6.2526 20.3007 6.39844 20.2642C6.52604 20.2096 6.65365 20.164 6.78125 20.1276C8.0026 19.7631 8.92318 19.344 9.54297 18.8702C10.1628 18.3964 10.5456 17.7859 10.6914 17.0387C10.1445 16.4738 9.64323 15.7995 9.1875 15.0159C8.73177 14.2323 8.34896 13.3941 8.03906 12.5011C7.71094 11.6082 7.45573 10.697 7.27344 9.76766C7.09115 8.82005 7 7.89977 7 7.00684C7 5.73121 7.18229 4.64693 7.54688 3.75399C7.91146 2.86105 8.41276 2.14123 9.05078 1.59454C9.6888 1.02962 10.4271 0.628704 11.2656 0.391802C12.1224 0.136677 13.0339 0.00911458 14 0.00911458V0C14.9661 0 15.8776 0.127563 16.7344 0.382688C17.5729 0.61959 18.3112 1.0205 18.9492 1.58542C19.5872 2.13212 20.0885 2.85194 20.4531 3.74487C20.8177 4.63781 21 5.7221 21 6.99772C21 7.89066 20.9089 8.81093 20.7266 9.75854C20.5443 10.6879 20.2891 11.5991 19.9609 12.492C19.651 13.385 19.2682 14.2232 18.8125 15.0068C18.3568 15.7904 17.8555 16.4647 17.3086 17.0296C17.4544 17.7768 17.8372 18.3872 18.457 18.861C19.0768 19.3349 19.9974 19.754 21.2188 20.1185C21.3464 20.1549 21.474 20.2005 21.6016 20.2551C21.7474 20.2916 21.9023 20.328 22.0664 20.3645C22.2852 20.4374 22.4583 20.492 22.5859 20.5285C22.7135 20.5649 22.8229 20.5923 22.9141 20.6105C23.2969 20.7198 23.625 20.82 23.8984 20.9112C24.1901 21.0023 24.4453 21.0934 24.6641 21.1845C25.6302 21.4761 26.4232 22.0319 27.043 22.8519C27.681 23.672 28 24.6105 28 25.6674ZM14 2.3508V2.35991C12.4323 2.35991 11.2656 2.72438 10.5 3.45331C9.71615 4.16401 9.32422 5.34852 9.32422 7.00684C9.32422 7.77221 9.40625 8.55581 9.57031 9.35763C9.71615 10.1595 9.92578 10.9339 10.1992 11.6811C10.4727 12.4282 10.7917 13.1207 11.1562 13.7585C11.5208 14.4146 11.9219 14.9613 12.3594 15.3986L13.1797 16.246L12.9883 17.4214C12.7695 18.697 12.2044 19.7175 11.293 20.4829C10.3815 21.2301 9.10547 21.8588 7.46484 22.369C7.31901 22.4055 7.18229 22.451 7.05469 22.5057C6.90885 22.5421 6.74479 22.5786 6.5625 22.615C6.28906 22.7062 6.10677 22.7699 6.01562 22.8064C5.90625 22.8246 5.80599 22.8428 5.71484 22.861C5.36849 22.9704 5.07682 23.0615 4.83984 23.1344C4.60286 23.2073 4.40234 23.2802 4.23828 23.3531L3.99219 23.4351C3.5 23.5809 3.09896 23.8633 2.78906 24.2825C2.47917 24.7016 2.32422 25.1663 2.32422 25.6765H14V25.6674H25.6758C25.6758 25.1572 25.5208 24.6925 25.2109 24.2733C24.901 23.8542 24.5 23.5718 24.0078 23.426L23.7617 23.344C23.5977 23.2711 23.3971 23.1982 23.1602 23.1253C22.9232 23.0524 22.6315 22.9613 22.2852 22.8519C22.194 22.8337 22.0938 22.8155 21.9844 22.7973C21.8932 22.7608 21.7109 22.697 21.4375 22.6059C21.2552 22.5695 21.0911 22.533 20.9453 22.4966C20.8177 22.4419 20.681 22.3964 20.5352 22.3599C18.8945 21.8497 17.6185 21.221 16.707 20.4738C15.7956 19.7084 15.2305 18.6879 15.0117 17.4123L14.8203 16.2369L15.6406 15.3895C16.0781 14.9522 16.4792 14.4055 16.8438 13.7494C17.2083 13.1116 17.5273 12.4191 17.8008 11.672C18.0742 10.9248 18.2839 10.1503 18.4297 9.34852C18.5938 8.5467 18.6758 7.7631 18.6758 6.99772C18.6758 5.33941 18.2839 4.1549 17.5 3.44419C16.7344 2.71526 15.5677 2.3508 14 2.3508Z" fill="#90A7FF"/>
</svg>
