<svg width="48" height="48" viewBox="0 0 48 48" fill="none" xmlns="http://www.w3.org/2000/svg">
<rect x="0.5" y="0.5" width="47" height="47" rx="23.5" stroke="#1D14BF"/>
<path fill-rule="evenodd" clip-rule="evenodd" d="M22 18C21.2044 18 20.4413 18.3161 19.8787 18.8787C19.3161 19.4413 19 20.2044 19 21V25C19 26.3261 19.5268 27.5979 20.4645 28.5355C21.4021 29.4732 22.6739 30 24 30C25.3261 30 26.5979 29.4732 27.5355 28.5355C28.4732 27.5979 29 26.3261 29 25V21C29 20.7348 29.1054 20.4804 29.2929 20.2929C29.4804 20.1054 29.7348 20 30 20C30.2652 20 30.5196 20.1054 30.7071 20.2929C30.8946 20.4804 31 20.7348 31 21V25C31 25.9193 30.8189 26.8295 30.4672 27.6788C30.1154 28.5281 29.5998 29.2997 28.9497 29.9497C28.2997 30.5998 27.5281 31.1154 26.6788 31.4672C25.8295 31.8189 24.9193 32 24 32C23.0807 32 22.1705 31.8189 21.3212 31.4672C20.4719 31.1154 19.7003 30.5998 19.0503 29.9497C18.4002 29.2997 17.8846 28.5281 17.5328 27.6788C17.1811 26.8295 17 25.9193 17 25V21C17 19.6739 17.5268 18.4021 18.4645 17.4645C19.4021 16.5268 20.6739 16 22 16C23.3261 16 24.5979 16.5268 25.5355 17.4645C26.4732 18.4021 27 19.6739 27 21V25C27 25.7956 26.6839 26.5587 26.1213 27.1213C25.5587 27.6839 24.7956 28 24 28C23.2044 28 22.4413 27.6839 21.8787 27.1213C21.3161 26.5587 21 25.7956 21 25V21C21 20.7348 21.1054 20.4804 21.2929 20.2929C21.4804 20.1054 21.7348 20 22 20C22.2652 20 22.5196 20.1054 22.7071 20.2929C22.8946 20.4804 23 20.7348 23 21V25C23 25.2652 23.1054 25.5196 23.2929 25.7071C23.4804 25.8946 23.7348 26 24 26C24.2652 26 24.5196 25.8946 24.7071 25.7071C24.8946 25.5196 25 25.2652 25 25V21C25 20.2044 24.6839 19.4413 24.1213 18.8787C23.5587 18.3161 22.7956 18 22 18Z" fill="#1D14BF"/>
</svg>
