<svg width="24" height="24" viewBox="0 0 24 24" fill="none" xmlns="http://www.w3.org/2000/svg">
<rect width="24" height="24" rx="12" fill="#1F1F1F"/>
<path d="M7.89062 15.6953L8.80469 14.875C9.71094 15.9844 10.8047 16.5391 12.0859 16.5391C12.7786 16.5391 13.3594 16.3359 13.8281 15.9297C14.2969 15.5234 14.5312 14.9896 14.5312 14.3281C14.5312 13.6458 14.2422 13.1172 13.6641 12.7422C13.0911 12.362 12.3359 12.1719 11.3984 12.1719H10.6797L10.4219 11.4219L13.9609 7.4375H8.48438V6.29688H15.6406V7.22656L12.1172 11.1328C13.1849 11.2161 14.0677 11.5234 14.7656 12.0547C15.4635 12.5807 15.8125 13.3359 15.8125 14.3203C15.8125 15.2995 15.4531 16.1068 14.7344 16.7422C14.0156 17.3776 13.1276 17.6953 12.0703 17.6953C10.3099 17.6953 8.91667 17.0286 7.89062 15.6953Z" fill="#D8E3FF"/>
</svg>
