<svg width="24" height="24" viewBox="0 0 24 24" fill="none" xmlns="http://www.w3.org/2000/svg">
<rect width="24" height="24" rx="12" fill="#1F1F1F"/>
<path d="M7.95312 15.9141L8.78125 15.0078C9.83854 16.0339 10.901 16.5443 11.9688 16.5391C12.7708 16.5391 13.4219 16.3047 13.9219 15.8359C14.4219 15.3672 14.6719 14.7656 14.6719 14.0312C14.6719 13.3385 14.4115 12.7734 13.8906 12.3359C13.375 11.8984 12.7057 11.6797 11.8828 11.6797C11.1172 11.6797 10.3333 11.8906 9.53125 12.3125L8.6875 11.7578L9.00781 6.29688H15.4531V7.46875H10.1094L9.86719 11.0547C10.6224 10.7266 11.3594 10.5599 12.0781 10.5547C13.1979 10.5547 14.1224 10.8672 14.8516 11.4922C15.5859 12.1172 15.9531 12.9583 15.9531 14.0156C15.9531 15.1042 15.5781 15.9896 14.8281 16.6719C14.0833 17.3542 13.125 17.6953 11.9531 17.6953C10.4688 17.6953 9.13542 17.1016 7.95312 15.9141Z" fill="#D8E3FF"/>
</svg>
