<svg width="24" height="24" viewBox="0 0 24 24" fill="none" xmlns="http://www.w3.org/2000/svg">
<rect width="24" height="24" rx="12" fill="#1F1F1F"/>
<path d="M7.97656 17.5V16.5234L12.0391 12.9375C12.9141 12.1719 13.5234 11.5339 13.8672 11.0234C14.2109 10.5078 14.3828 9.97396 14.3828 9.42188C14.3828 8.78125 14.1641 8.26302 13.7266 7.86719C13.2891 7.47135 12.7552 7.27344 12.125 7.27344C11.5156 7.27344 10.9792 7.42969 10.5156 7.74219C10.0521 8.04948 9.58594 8.53385 9.11719 9.19531L8.1875 8.52344C8.72917 7.71094 9.30469 7.11198 9.91406 6.72656C10.5234 6.33594 11.2917 6.14062 12.2188 6.14062C13.224 6.14062 14.0521 6.44271 14.7031 7.04688C15.3594 7.64583 15.6875 8.41146 15.6875 9.34375C15.6875 10.1094 15.4792 10.7917 15.0625 11.3906C14.651 11.9844 13.9167 12.7526 12.8594 13.6953L9.86719 16.3516H15.8047V17.5H7.97656Z" fill="#D8E3FF"/>
</svg>
