<svg width="40" height="40" viewBox="0 0 40 40" fill="none" xmlns="http://www.w3.org/2000/svg">
<g clip-path="url(#clip0_290_2472)">
<path d="M6.05829 18.8219C5.74584 19.1345 5.57031 19.5583 5.57031 20.0002C5.57031 20.4422 5.74584 20.866 6.05829 21.1786L15.4866 30.6069C15.6404 30.7661 15.8243 30.8931 16.0276 30.9804C16.231 31.0678 16.4497 31.1137 16.671 31.1157C16.8923 31.1176 17.1117 31.0754 17.3165 30.9916C17.5214 30.9078 17.7075 30.7841 17.8639 30.6276C18.0204 30.4711 18.1442 30.285 18.228 30.0802C18.3118 29.8753 18.354 29.6559 18.352 29.4346C18.3501 29.2133 18.3041 28.9946 18.2168 28.7912C18.1294 28.5879 18.0025 28.404 17.8433 28.2502L11.26 21.6669H33.3316C33.7737 21.6669 34.1976 21.4913 34.5101 21.1788C34.8227 20.8662 34.9983 20.4423 34.9983 20.0002C34.9983 19.5582 34.8227 19.1343 34.5101 18.8217C34.1976 18.5092 33.7737 18.3336 33.3316 18.3336H11.26L17.8433 11.7502C18.1469 11.4359 18.3149 11.0149 18.3111 10.5779C18.3073 10.1409 18.132 9.72289 17.823 9.41388C17.514 9.10486 17.096 8.92958 16.659 8.92578C16.222 8.92199 15.801 9.08998 15.4866 9.39357L6.05829 18.8219Z" fill="#D1D1D1"/>
</g>
<defs>
<clipPath id="clip0_290_2472">
<rect width="40" height="40" fill="white" transform="matrix(0 -1 1 0 0 40)"/>
</clipPath>
</defs>
</svg>
