<svg width="28" height="28" viewBox="0 0 28 28" fill="none" xmlns="http://www.w3.org/2000/svg">
<path d="M14 2.33331C7.56698 2.33331 2.33331 7.56698 2.33331 14V18.8335C2.33331 20.0281 3.37981 21 4.66665 21H5.83331C6.14273 21 6.43948 20.8771 6.65827 20.6583C6.87706 20.4395 6.99998 20.1427 6.99998 19.8333V13.8331C6.99998 13.5237 6.87706 13.227 6.65827 13.0082C6.43948 12.7894 6.14273 12.6665 5.83331 12.6665H4.77398C5.42265 8.15148 9.30765 4.66665 14 4.66665C18.6923 4.66665 22.5773 8.15148 23.226 12.6665H22.1666C21.8572 12.6665 21.5605 12.7894 21.3417 13.0082C21.1229 13.227 21 13.5237 21 13.8331V21C21 22.2868 19.9535 23.3333 18.6666 23.3333H16.3333V22.1666H11.6666V25.6666H18.6666C21.2403 25.6666 23.3333 23.5736 23.3333 21C24.6201 21 25.6666 20.0281 25.6666 18.8335V14C25.6666 7.56698 20.433 2.33331 14 2.33331Z" fill="#d1d1d1"/>
</svg>
