<svg width="24" height="24" viewBox="0 0 24 24" fill="none" xmlns="http://www.w3.org/2000/svg">
<path d="M21 12.0001C21 13.8806 20.411 15.7139 19.3157 17.2425C18.2203 18.7711 16.6736 19.9182 14.8929 20.5226C13.1122 21.1271 11.1868 21.1586 9.3873 20.6127C7.58776 20.0668 6.00442 18.9709 4.85967 17.4789C3.71492 15.987 3.06627 14.1739 3.00481 12.2944C2.94335 10.4149 3.47218 8.56329 4.51702 6.99974C5.56187 5.43619 7.07023 4.23921 8.83027 3.5769C10.5903 2.91459 12.5136 2.82023 14.33 3.30708" stroke="#90A7FF" stroke-width="2" stroke-linecap="round"/>
<path d="M8 10L11.776 14.7201C11.8928 14.866 12.113 14.8708 12.2361 14.7302L19 7" stroke="#90A7FF" stroke-width="2" stroke-linecap="round"/>
</svg>
