<svg width="28" height="28" viewBox="0 0 28 28" fill="none" xmlns="http://www.w3.org/2000/svg">
<path fill-rule="evenodd" clip-rule="evenodd" d="M0 28H28V22.5549C27.9013 22.5252 27.7965 22.4946 27.6855 22.4629C27.6172 22.4492 27.5352 22.4287 27.4395 22.4013C27.3438 22.374 27.2139 22.333 27.0498 22.2783C26.9268 22.251 26.8105 22.2236 26.7012 22.1963C26.6055 22.1553 26.5098 22.1211 26.4141 22.0937C25.498 21.8203 24.8076 21.5058 24.3428 21.1504C23.8779 20.7949 23.5908 20.3369 23.4814 19.7763C23.8916 19.3525 24.2676 18.8467 24.6094 18.2588C24.9512 17.6709 25.2383 17.042 25.4707 16.372C25.7168 15.7021 25.9082 15.0185 26.0449 14.3213C26.1816 13.6103 26.25 12.9199 26.25 12.25C26.25 11.2929 26.1133 10.4795 25.8398 9.80955C25.5664 9.13963 25.1904 8.59959 24.7119 8.18943C24.2334 7.7656 23.6797 7.46482 23.0508 7.28709C22.4082 7.09568 21.7246 6.99998 21 6.99998C20.2754 6.99998 19.5918 7.09568 18.9492 7.28709C18.3203 7.46482 17.7666 7.7656 17.2881 8.18943C16.8096 8.59959 16.4336 9.13963 16.1602 9.80955C15.8867 10.4795 15.75 11.2929 15.75 12.25C15.75 12.9199 15.8184 13.6103 15.9551 14.3213C16.0918 15.0185 16.2832 15.7021 16.5293 16.372C16.7617 17.042 17.0488 17.6709 17.3906 18.2588C17.7324 18.8467 18.1084 19.3525 18.5186 19.7763C18.4591 20.0808 18.3473 20.3551 18.183 20.5991C18.2352 20.619 18.2864 20.6391 18.3364 20.6595C18.8587 20.8231 19.3387 21.0554 19.774 21.3535C19.9925 20.9765 20.1485 20.5607 20.2362 20.1115L20.411 19.2154L19.7761 18.5594C19.478 18.2514 19.1847 17.8629 18.9035 17.3792C18.6206 16.8926 18.3797 16.3666 18.1826 15.7984L18.1774 15.7835L18.172 15.7686C17.958 15.1861 17.7918 14.5927 17.673 13.9877C17.556 13.3781 17.5 12.7996 17.5 12.25C17.5 11.4504 17.6154 10.875 17.7804 10.4709C17.9643 10.0202 18.189 9.7221 18.427 9.51813L18.4378 9.50888L18.4484 9.49946C18.7253 9.25419 19.0437 9.07892 19.4251 8.97113L19.437 8.96778L19.4488 8.96426C19.9167 8.82489 20.431 8.74998 21 8.74998C21.569 8.74998 22.0833 8.82489 22.5512 8.96426L22.563 8.96778L22.5749 8.97113C22.9563 9.07892 23.2747 9.25419 23.5516 9.49946L23.5622 9.50888L23.573 9.51813C23.811 9.7221 24.0357 10.0202 24.2196 10.4709C24.3846 10.875 24.5 11.4504 24.5 12.25C24.5 12.7996 24.444 13.3782 24.327 13.9878C24.2082 14.5928 24.042 15.1861 23.828 15.7686L23.8226 15.7835L23.8174 15.7984C23.6203 16.3666 23.3794 16.8926 23.0965 17.3792C22.8153 17.8629 22.522 18.2514 22.2239 18.5594L21.589 19.2154L21.7638 20.1115C21.9573 21.1031 22.4843 21.9322 23.2797 22.5405C23.9862 23.0807 24.9064 23.47 25.9135 23.7706L25.9234 23.7736L25.9333 23.7764C25.9548 23.7825 25.9809 23.7915 26.0118 23.8048L26.1407 23.86L26.25 23.8873V26.25H21V25.8694C21 25.8013 20.9986 25.7337 20.9957 25.6666C20.9574 24.7798 20.6665 23.9868 20.1227 23.2877C19.5546 22.5358 18.8277 22.0261 17.9421 21.7588C17.7415 21.6752 17.5076 21.5917 17.2402 21.5081C16.9896 21.4246 16.6888 21.3327 16.3379 21.2324C16.2543 21.2157 16.1541 21.1906 16.0371 21.1572C15.9201 21.1238 15.7614 21.0737 15.5609 21.0068C15.4105 20.9734 15.2684 20.94 15.1348 20.9066C15.0178 20.8564 14.9008 20.8146 14.7839 20.7812C13.6643 20.447 12.8204 20.0627 12.2523 19.6282C11.6841 19.1938 11.3332 18.634 11.1995 17.9489C11.7008 17.4309 12.1604 16.8126 12.5781 16.0941C12.9959 15.3755 13.3468 14.6069 13.6309 13.7881C13.9316 12.9693 14.1656 12.1338 14.3327 11.2816C14.4998 10.4126 14.5833 9.56877 14.5833 8.74998C14.5833 7.58027 14.4162 6.58603 14.082 5.76723C13.7478 4.94844 13.2883 4.28839 12.7035 3.78709C12.1186 3.26908 11.4418 2.90146 10.6732 2.68422C9.8878 2.45028 9.0523 2.33331 8.16667 2.33331C7.28103 2.33331 6.44553 2.45028 5.66016 2.68422C4.89149 2.90146 4.21474 3.26908 3.62988 3.78709C3.04503 4.28839 2.5855 4.94844 2.2513 5.76723C1.9171 6.58603 1.75 7.58027 1.75 8.74998C1.75 9.56877 1.83355 10.4126 2.00065 11.2816C2.16775 12.1338 2.40169 12.9693 2.70247 13.7881C2.98655 14.6069 3.33746 15.3755 3.75521 16.0941C4.17296 16.8126 4.63249 17.4309 5.13379 17.9489C5.00011 18.634 4.6492 19.1938 4.08106 19.6282C3.51291 20.0627 2.66905 20.447 1.54948 20.7812C1.43251 20.8146 1.31554 20.8564 1.19857 20.9066C1.06489 20.94 0.922852 20.9734 0.772461 21.0068C0.571941 21.0737 0.413195 21.1238 0.296225 21.1572C0.181373 21.19 0.0826312 21.2148 0 21.2315V28ZM14.5689 23.1702C14.6878 23.2 14.8105 23.2292 14.9367 23.258C15.1056 23.3134 15.2612 23.3622 15.3961 23.4008C15.5162 23.4351 15.6427 23.4685 15.7708 23.4972C16.0667 23.5825 16.3091 23.6573 16.5024 23.7217L16.5232 23.7287L16.5443 23.7352C16.7618 23.8032 16.9258 23.8631 17.0446 23.9126L17.1541 23.9582L17.2677 23.9925C17.6705 24.1141 17.985 24.329 18.261 24.6943L18.2709 24.7074L18.2809 24.7203C18.5017 25.0041 18.6254 25.3021 18.6579 25.6666H2.33333V22.9819C3.52977 22.6161 4.63603 22.1412 5.49844 21.4817C6.50737 20.7102 7.1781 19.6556 7.42393 18.3957L7.65706 17.201L6.81053 16.3262C6.45868 15.9626 6.10939 15.5009 5.77239 14.9213C5.43317 14.3378 5.14391 13.7064 4.90691 13.0233L4.89999 13.0033L4.8927 12.9835C4.63475 12.2813 4.43444 11.5661 4.29122 10.8368C4.15036 10.1031 4.08333 9.40836 4.08333 8.74998C4.08333 7.79024 4.22205 7.11343 4.41161 6.64899C4.62651 6.12249 4.88428 5.78507 5.1484 5.55869L5.16278 5.54636L5.17697 5.5338C5.49302 5.25386 5.85606 5.05358 6.29472 4.92961L6.31053 4.92515L6.32627 4.92046C6.87875 4.75589 7.48847 4.66665 8.16667 4.66665C8.84486 4.66665 9.45458 4.75589 10.0071 4.92046L10.0228 4.92515L10.0386 4.92961C10.4773 5.05358 10.8403 5.25386 11.1564 5.53379L11.1706 5.54636L11.1849 5.55869C11.4491 5.78507 11.7068 6.12249 11.9217 6.64899C12.1113 7.11342 12.25 7.79024 12.25 8.74998C12.25 9.40836 12.183 10.1031 12.0421 10.8369C11.8989 11.5661 11.6986 12.2813 11.4406 12.9835L11.4333 13.0033L11.4264 13.0233C11.1894 13.7064 10.9002 14.3378 10.5609 14.9213C10.2239 15.5009 9.87466 15.9626 9.52281 16.3262L8.67628 17.201L8.9094 18.3957C9.15523 19.6556 9.82596 20.7102 10.8349 21.4817C11.7252 22.1626 12.8754 22.6466 14.1164 23.0171L14.1296 23.021L14.1428 23.0248C14.1609 23.0299 14.185 23.0381 14.2156 23.0512L14.3875 23.1249L14.5689 23.1702Z" fill="#d1d1d1"/>
</svg>
