<svg width="26" height="26" viewBox="0 0 26 26" fill="none" xmlns="http://www.w3.org/2000/svg">
<path fill-rule="evenodd" clip-rule="evenodd" d="M2 13C2 6.92487 6.92487 2 13 2C13.5523 2 14 1.55228 14 1C14 0.447715 13.5523 0 13 0C5.8203 0 0 5.8203 0 13C0 20.1797 5.8203 26 13 26C20.1797 26 26 20.1797 26 13C26 11.6827 25.8038 10.4094 25.4382 9.20875C24.8433 7.25471 23.8013 5.49701 22.4326 4.05428C22.0525 3.6536 21.4196 3.63693 21.0189 4.01704C20.6182 4.39714 20.6016 5.03009 20.9817 5.43076C22.1413 6.65317 23.0224 8.14053 23.5249 9.79125C23.8336 10.8052 24 11.8822 24 13C24 19.0751 19.0751 24 13 24C6.92487 24 2 19.0751 2 13ZM19 13C19 16.3137 16.3137 19 13 19C9.68629 19 7 16.3137 7 13C7 9.68629 9.68629 7 13 7C16.3137 7 19 9.68629 19 13ZM21 13C21 17.4183 17.4183 21 13 21C8.58172 21 5 17.4183 5 13C5 8.58172 8.58172 5 13 5C17.4183 5 21 8.58172 21 13Z" fill="black"/>
</svg>
