<svg width="24" height="24" viewBox="0 0 24 24" fill="none" xmlns="http://www.w3.org/2000/svg">
<path d="M22.4726 11.5266L12.4726 1.52658C12.3477 1.40241 12.1787 1.33271 12.0026 1.33271C11.8264 1.33271 11.6575 1.40241 11.5326 1.52658L1.53257 11.5266C1.42335 11.6541 1.36628 11.8182 1.37276 11.9859C1.37924 12.1537 1.4488 12.3129 1.56753 12.4316C1.68626 12.5504 1.84542 12.6199 2.0132 12.6264C2.18099 12.6329 2.34504 12.5758 2.47257 12.4666L11.9992 2.93991L21.5259 12.4732C21.6534 12.5825 21.8175 12.6395 21.9853 12.6331C22.1531 12.6266 22.3122 12.557 22.4309 12.4383C22.5497 12.3196 22.6192 12.1604 22.6257 11.9926C22.6322 11.8248 22.5751 11.6608 22.4659 11.5332L22.4726 11.5266Z" fill="#1F1F1F"/>
<path d="M18.6659 21.3332H15.3326V14.6666H8.6659V21.3332H5.33257V11.9999L3.99924 13.3332V21.3332C3.99924 21.6869 4.13971 22.026 4.38976 22.276C4.63981 22.5261 4.97895 22.6666 5.33257 22.6666H9.99924V15.9999H13.9992V22.6666H18.6659C19.0195 22.6666 19.3587 22.5261 19.6087 22.276C19.8588 22.026 19.9992 21.6869 19.9992 21.3332V13.1732L18.6659 11.8399V21.3332Z" fill="#1F1F1F"/>
<path fill-rule="evenodd" clip-rule="evenodd" d="M22.4659 11.5332C22.5751 11.6608 22.6322 11.8248 22.6257 11.9926C22.6192 12.1604 22.5497 12.3196 22.4309 12.4383C22.3122 12.557 22.1531 12.6266 21.9853 12.6331C21.8175 12.6395 21.6534 12.5825 21.5259 12.4732L11.9992 2.93991L2.47257 12.4666C2.34504 12.5758 2.18099 12.6329 2.0132 12.6264C1.84542 12.6199 1.68626 12.5504 1.56753 12.4316C1.4488 12.3129 1.37924 12.1537 1.37276 11.9859C1.36628 11.8182 1.42335 11.6541 1.53257 11.5266L11.5326 1.52658C11.6575 1.40241 11.8264 1.33271 12.0026 1.33271C12.1787 1.33271 12.3477 1.40241 12.4726 1.52658L22.4726 11.5266L22.4659 11.5332ZM22.8448 11.5786L12.6847 1.31444C12.5036 1.1344 12.2579 1.03271 12.0026 1.03271C11.7472 1.03271 11.5022 1.13377 11.3211 1.31381L1.31224 11.3226L1.30471 11.3314C1.14634 11.5164 1.06359 11.7542 1.07299 11.9975C1.08238 12.2408 1.18324 12.4716 1.3554 12.6438C1.52756 12.8159 1.75834 12.9168 2.00162 12.9262C2.24491 12.9356 2.48278 12.8528 2.66771 12.6944L2.67651 12.6869L11.9992 3.36425L21.3219 12.6935L21.3308 12.7011C21.5157 12.8595 21.7536 12.9422 21.9969 12.9328C22.2401 12.9234 22.4709 12.8226 22.6431 12.6504C22.8152 12.4783 22.9161 12.2475 22.9255 12.0042C22.9312 11.8568 22.9031 11.7114 22.8448 11.5786ZM5.33257 21.3332H8.6659V14.6666H15.3326V21.3332H18.6659V11.8399L19.9992 13.1732V21.3332C19.9992 21.6869 19.8588 22.026 19.6087 22.276C19.3587 22.5261 19.0195 22.6666 18.6659 22.6666H13.9992V15.9999H9.99924V22.6666H5.33257C4.97895 22.6666 4.63981 22.5261 4.38976 22.276C4.13971 22.026 3.99924 21.6869 3.99924 21.3332V13.3332L5.33257 11.9999V21.3332ZM10.2992 16.2999V22.9666H5.33257C4.89938 22.9666 4.48394 22.7945 4.17763 22.4882C3.87132 22.1819 3.69924 21.7664 3.69924 21.3332V13.209L5.63257 11.2756V21.0332H8.3659V14.3666H15.6326V21.0332H18.3659V11.1156L20.2992 13.049V21.3332C20.2992 21.7664 20.1272 22.1819 19.8208 22.4882C19.5145 22.7945 19.0991 22.9666 18.6659 22.9666H13.6992V16.2999H10.2992Z" fill="#1F1F1F"/>
</svg>
