<svg width="24" height="24" viewBox="0 0 24 24" fill="none" xmlns="http://www.w3.org/2000/svg">
<path d="M21.6102 9.2997L21.6102 9.29973L10.05 20.8609C10.05 20.8609 10.0499 20.861 10.0498 20.861C9.87158 21.0403 9.65951 21.1825 9.42592 21.2793C9.19218 21.3762 8.94108 21.4257 8.68824 21.425M21.6102 9.2997L8.68824 21.425M21.6102 9.2997C21.9711 8.93872 22.1738 8.44917 22.1738 7.93873C22.1738 7.42829 21.9711 6.93875 21.6102 6.57776L21.4334 6.75451L21.6102 6.57775L17.4215 2.38807C17.4215 2.38806 17.4215 2.38806 17.4214 2.38805C17.2427 2.20923 17.0304 2.06737 16.7969 1.97058C16.5633 1.87379 16.3129 1.82397 16.06 1.82397C15.8071 1.82397 15.5568 1.87379 15.3232 1.97058C15.0896 2.06737 14.8773 2.20922 14.6986 2.38804C14.6986 2.38805 14.6986 2.38806 14.6986 2.38807L3.13883 13.9487L21.6102 9.2997ZM8.68824 21.425H4.49923C3.98868 21.425 3.49905 21.2222 3.13805 20.8612C2.77704 20.5002 2.57423 20.0105 2.57423 19.5L2.57423 15.3101L8.68824 21.425ZM16.3348 11.25L8.50977 19.075H4.92423V15.4894L12.7492 7.66444L16.3348 11.25ZM17.9992 9.58552L14.4137 5.99998L16.0624 4.35132L19.6479 7.93686L17.9992 9.58552Z" fill="#D1D1D1" stroke="#D1D1D1" stroke-width="0.5"/>
</svg>
