<svg width="24" height="24" viewBox="0 0 24 24" fill="none" xmlns="http://www.w3.org/2000/svg">
<g clip-path="url(#clip0_536_354)">
<path d="M16.8137 15.1203L16.8121 15.1188C16.3661 14.7417 15.893 14.398 15.3964 14.0905C14.9489 13.8267 14.485 13.5917 14.0076 13.3869C13.1872 13.7336 12.3049 13.9119 11.4133 13.9105M16.8137 15.1203L18.0549 7.30511C18.0548 3.65523 15.0798 0.7 11.4134 0.7C7.74691 0.7 4.77307 3.65523 4.77293 7.30497M16.8137 15.1203C17.0296 15.3002 17.308 15.3873 17.5879 15.3626C17.8679 15.3379 18.1267 15.2034 18.3077 14.9885L16.8137 15.1203ZM11.4133 13.9105C10.4286 13.9119 9.45637 13.6943 8.56693 13.2743C6.50769 14.0862 5.02251 15.2693 4.06298 16.8187C3.08521 18.3978 2.68328 20.1625 2.86368 22.1491L2.86379 22.1503C2.8758 22.2889 2.86037 22.4284 2.81839 22.561C2.77641 22.6936 2.70871 22.8166 2.61915 22.923C2.52959 23.0293 2.41994 23.117 2.29646 23.181C2.17327 23.2448 2.03874 23.2838 1.90052 23.2957C1.62145 23.321 1.34371 23.2347 1.12815 23.0556C0.912329 22.8763 0.776471 22.6188 0.7504 22.3394L0.750324 22.3386C0.530307 19.9105 1.0317 17.6879 2.25697 15.7099C3.26775 14.0756 4.72116 12.7879 6.58955 11.8436C6.06255 11.2917 5.63504 10.6513 5.32723 9.95067C4.96089 9.11679 4.77212 8.21578 4.77293 7.30497M11.4133 13.9105C11.4135 13.9105 11.4137 13.9105 11.4138 13.9105L11.4134 13.6105L11.4129 13.9105C11.413 13.9105 11.4132 13.9105 11.4133 13.9105ZM4.77293 7.30497L5.07293 7.30524H4.77293C4.77293 7.30515 4.77293 7.30506 4.77293 7.30497ZM19.5536 15.6624L19.5545 15.6624C20.1396 15.6624 20.6113 16.1391 20.6113 16.7225V18.3497H22.2377H22.2385V18.6497C22.3383 18.6494 22.4371 18.6688 22.5294 18.7067C22.6217 18.7447 22.7056 18.8004 22.7763 18.8708L19.5536 15.6624ZM19.5536 15.6624C19.273 15.6632 19.0042 15.7753 18.8063 15.9742C18.6083 16.173 18.4973 16.4423 18.4977 16.7229L19.5536 15.6624ZM20.6113 20.4633V22.0912V22.0916H20.3113L20.6113 20.4633ZM20.6113 20.4633H22.2377H22.2385H20.6113ZM17.4451 10.0735C17.8472 9.20605 18.0553 8.26135 18.0549 7.30524L17.9837 13.7293C17.4161 13.2574 16.8705 12.8614 16.3447 12.5424L16.5006 12.286C16.5005 12.286 16.5004 12.2859 16.5003 12.2859C16.3596 12.2003 16.211 12.1155 16.0546 12.0311C16.6334 11.4703 17.1051 10.807 17.4451 10.0735ZM18.4977 22.0916H18.7977L16.8705 20.1633V20.4633H16.8714H18.4977V22.0912V22.0916ZM6.89423 7.30524C6.89423 4.826 8.91643 2.81361 11.4145 2.81361C13.9113 2.81361 15.9325 4.82587 15.9325 7.30524C15.9325 9.7857 13.9113 11.798 11.4134 11.798C8.91657 11.798 6.89423 9.7846 6.89423 7.30524Z" fill="#D1D1D1" stroke="#D1D1D1" stroke-width="0.6"/>
</g>
<defs>
<clipPath id="clip0_536_354">
<rect width="24" height="24" fill="white"/>
</clipPath>
</defs>
</svg>
