<svg width="24" height="24" viewBox="0 0 24 24" fill="none" xmlns="http://www.w3.org/2000/svg">
<path d="M21 12C21 13.8805 20.411 15.7138 19.3157 17.2424C18.2203 18.771 16.6736 19.918 14.8929 20.5225C13.1122 21.127 11.1868 21.1585 9.3873 20.6125C7.58776 20.0666 6.00442 18.9707 4.85967 17.4788C3.71492 15.9868 3.06627 14.1738 3.00481 12.2943C2.94335 10.4147 3.47218 8.56317 4.51702 6.99962C5.56187 5.43607 7.07023 4.23908 8.83027 3.57678C10.5903 2.91447 12.5136 2.82011 14.33 3.30696" stroke="#D1D1D1" stroke-width="3" stroke-linecap="round"/>
<path d="M8 10L11.776 14.7201C11.8928 14.866 12.113 14.8708 12.2361 14.7302L19 7" stroke="#D1D1D1" stroke-width="3" stroke-linecap="round"/>
</svg>
