<svg width="24" height="24" viewBox="0 0 24 24" fill="none" xmlns="http://www.w3.org/2000/svg">
<path d="M5.116 20C4.65533 20 4.271 19.846 3.963 19.538C3.655 19.23 3.50067 18.8453 3.5 18.384V3.50001C3.5 3.35801 3.548 3.23934 3.644 3.14401C3.74 3.04867 3.859 3.00067 4.001 3.00001C4.143 2.99934 4.26167 3.04734 4.357 3.14401C4.45233 3.24067 4.5 3.35934 4.5 3.50001V18.385C4.5 18.5383 4.564 18.6793 4.692 18.808C4.82 18.9367 4.961 19.0007 5.115 19H20C20.142 19 20.2607 19.048 20.356 19.144C20.4513 19.24 20.4993 19.359 20.5 19.501C20.5007 19.643 20.4527 19.7617 20.356 19.857C20.2593 19.9523 20.1407 20 20 20H5.116ZM8.116 16.5C7.90867 16.5 7.735 16.43 7.595 16.29C7.455 16.15 7.385 15.9767 7.385 15.77V9.92201C7.385 9.71534 7.455 9.54201 7.595 9.40201C7.735 9.26201 7.90833 9.19201 8.115 9.19201H8.577C8.80567 9.19201 8.99767 9.26967 9.153 9.42501C9.30767 9.58101 9.385 9.77434 9.385 10.005V15.694C9.385 15.9247 9.30733 16.1163 9.152 16.269C8.99733 16.4223 8.80567 16.499 8.577 16.499L8.116 16.5ZM12.616 16.5C12.4087 16.5 12.235 16.43 12.095 16.29C11.955 16.15 11.885 15.9767 11.885 15.77V5.00001C11.885 4.77134 11.9623 4.57967 12.117 4.42501C12.2717 4.27034 12.4633 4.19267 12.692 4.19201H13.154C13.3607 4.19201 13.534 4.26201 13.674 4.40201C13.814 4.54201 13.884 4.71567 13.884 4.92301V15.693C13.884 15.9217 13.807 16.1133 13.653 16.268C13.4977 16.4227 13.3057 16.5 13.077 16.5H12.616ZM17.116 16.5C16.9087 16.5 16.735 16.43 16.595 16.29C16.455 16.15 16.385 15.9767 16.385 15.77V14C16.385 13.7713 16.4623 13.5797 16.617 13.425C16.7717 13.2703 16.9633 13.1927 17.192 13.192H17.654C17.8607 13.192 18.034 13.262 18.174 13.402C18.314 13.542 18.384 13.7157 18.384 13.923V15.693C18.384 15.9217 18.307 16.1133 18.153 16.268C17.999 16.4227 17.807 16.5 17.577 16.5H17.116Z" fill="#1F1F1F"/>
</svg>
